<svg width="55" height="55" viewBox="0 0 55 55" fill="none" xmlns="http://www.w3.org/2000/svg">
<rect width="55" height="55" rx="4" fill="white"/>
<path d="M37.2938 40.1687C34.5188 42.5125 30.9188 44 27 44C21.1688 44 16.05 40.7875 13.275 36.1L14.3139 31.3111L18.9188 30.4562C19.9875 33.9062 23.2125 36.4375 27 36.4375C28.8375 36.4375 30.5438 35.8562 31.95 34.825L36.375 35.5L37.2938 40.1687Z" fill="#59C36A"/>
<path d="M37.2938 40.1688L36.375 35.5L31.95 34.825C30.5438 35.8563 28.8374 36.4375 27 36.4375V44C30.9188 44 34.5188 42.5125 37.2938 40.1688Z" fill="#00A66C"/>
<path d="M18.5625 28C18.5625 28.8624 18.6937 29.6874 18.9187 30.4562L13.275 36.1C11.8688 33.7375 11 30.9624 11 28C11 25.0374 11.8688 22.2625 13.275 19.9L17.8046 20.6796L18.9187 25.5437C18.6937 26.3124 18.5625 27.1374 18.5625 28Z" fill="#FFDA2D"/>
<path d="M43 28C43 32.8749 40.7438 37.2438 37.2938 40.1688L31.95 34.825C33.0374 34.0374 33.9562 32.9874 34.5562 31.75H27C26.4749 31.75 26.0625 31.3374 26.0625 30.8125V25.1875C26.0625 24.6624 26.4749 24.25 27 24.25H41.8C42.25 24.25 42.6437 24.5687 42.7188 25.0187C42.9062 25.9937 43 27.0062 43 28V28Z" fill="#4086F4"/>
<path d="M34.5563 31.75C33.9563 32.9874 33.0374 34.0374 31.9501 34.825L37.2938 40.1688C40.7438 37.2438 43 32.875 43 28C43 27.0062 42.9062 25.9937 42.7187 25.0187C42.6437 24.5687 42.2499 24.25 41.7999 24.25H27V31.75H34.5563Z" fill="#4175DF"/>
<path d="M37.5563 16.4687C37.575 16.7312 37.4625 16.975 37.2938 17.1624L33.2813 21.1562C32.9626 21.4937 32.4376 21.5312 32.0626 21.2499C30.5812 20.1437 28.8375 19.5625 27 19.5625C23.2125 19.5625 19.9875 22.0937 18.9188 25.5437L13.275 19.9C16.05 15.2125 21.1688 12 27 12C30.7313 12 34.3688 13.375 37.2188 15.7749C37.425 15.9437 37.5375 16.2062 37.5563 16.4687V16.4687Z" fill="#FF641A"/>
<path d="M32.0625 21.2499C32.4375 21.5312 32.9624 21.4937 33.2812 21.1562L37.2937 17.1624C37.4625 16.975 37.575 16.7313 37.5562 16.4687C37.5374 16.2061 37.4249 15.9437 37.2187 15.7749C34.3687 13.375 30.7313 12 27 12V19.5625C28.8374 19.5625 30.5812 20.1437 32.0625 21.2499Z" fill="#F03800"/>
</svg>
